<?xml version="1.0" encoding="utf-8"?>
<!-- Generator: Adobe Illustrator 19.1.0, SVG Export Plug-In . SVG Version: 6.00 Build 0)  -->
<svg version="1.2" baseProfile="tiny" id="Layer_1" xmlns="http://www.w3.org/2000/svg" xmlns:xlink="http://www.w3.org/1999/xlink"
	 x="0px" y="0px" viewBox="0 0 1000 1000" xml:space="preserve">
<polyline fill="none" stroke="#7F5E40" stroke-width="2" stroke-miterlimit="10" points="873.3,649.4 873.3,704.1 497.4,921.1 
	121.6,704.1 121.6,649.2 "/>
<polyline fill="none" stroke="#7F5E40" stroke-width="2" stroke-miterlimit="10" points="121.6,325.8 121.6,270.1 497.4,53.1 
	873.3,270.1 873.3,325.8 "/>
<polyline fill="none" stroke="#7F5E40" stroke-width="2" stroke-miterlimit="10" points="892.1,649.7 892.1,715 497.4,942.8 
	102.8,715 102.8,649.4 "/>
<polyline fill="none" stroke="#7F5E40" stroke-width="2" stroke-miterlimit="10" points="102.8,325.8 102.8,259.3 497.4,31.4 
	892.1,259.3 892.1,325.8 "/>
<line fill="none" stroke="#7F5E40" stroke-width="2" stroke-miterlimit="10" x1="27.1" y1="349.6" x2="973.9" y2="349.6"/>
<line fill="none" stroke="#7F5E40" stroke-width="2" stroke-miterlimit="10" x1="27.1" y1="369.5" x2="973.9" y2="369.5"/>
<line fill="none" stroke="#7F5E40" stroke-width="2" stroke-miterlimit="10" x1="723.2" y1="627.2" x2="970.1" y2="627.2"/>
<line fill="none" stroke="#7F5E40" stroke-width="2" stroke-miterlimit="10" x1="273.8" y1="628.7" x2="25.3" y2="628.7"/>
<line fill="none" stroke="#7F5E40" stroke-width="2" stroke-miterlimit="10" x1="723.2" y1="607.2" x2="970.1" y2="607.2"/>
<line fill="none" stroke="#7F5E40" stroke-width="2" stroke-miterlimit="10" x1="273.8" y1="608.8" x2="25.3" y2="608.8"/>
</svg>
