<?xml version="1.0" encoding="utf-8"?>
<!-- Generator: Adobe Illustrator 19.1.0, SVG Export Plug-In . SVG Version: 6.00 Build 0)  -->
<svg version="1.2" baseProfile="tiny" id="Layer_1" xmlns="http://www.w3.org/2000/svg" xmlns:xlink="http://www.w3.org/1999/xlink"
	 x="0px" y="0px" viewBox="0 0 1000 1000" xml:space="preserve">
<g>
	<path fill="none" stroke="#AE715E" stroke-width="2" stroke-linecap="round" stroke-miterlimit="10" d="M611.9,235.9
		c0,0,18.7-18.7,24.7-24.7c2.2-2.2-2.2-10,0.1-12.3c1.6-1.6,6.5-6.4,6.5-6.4"/>
	<path fill="none" stroke="#AE715E" stroke-width="2" stroke-linecap="round" stroke-miterlimit="10" d="M643.2,204.6
		c0,0,3.5-3.5,6.1-6.1c2.2-2.2-2.2-10,0-12.2c2.2-2.2,6.3-6.3,6.3-6.3"/>
	<path fill="none" stroke="#AE715E" stroke-width="2" stroke-linecap="round" stroke-miterlimit="10" d="M655.5,192.3
		c0,0,3.2-3.2,6.2-6.2c2.2-2.2-2.2-10,0-12.2c2.2-2.2,10.5-10.5,10.5-10.5"/>
	<path fill="none" stroke="#AE715E" stroke-width="2" stroke-linecap="round" stroke-miterlimit="10" d="M643.8,216.6
		c0,0,9.9,2.3,12.1,0.1c2-2,6.6-6.6,6.6-6.6"/>
	<path fill="none" stroke="#AE715E" stroke-width="2" stroke-linecap="round" stroke-miterlimit="10" d="M656.3,204.1
		c0,0,10.1,2.1,12.3-0.1l6.2-6.2"/>
	<path fill="none" stroke="#AE715E" stroke-width="2" stroke-linecap="round" stroke-miterlimit="10" d="M668.7,191.7
		c0,0,10,2.2,12.2,0c1.7-1.7,10.5-10.5,10.5-10.5"/>
	
		<line fill="none" stroke="#AE715E" stroke-width="2" stroke-linecap="round" stroke-miterlimit="10" x1="674.1" y1="180" x2="688.9" y2="165.1"/>
</g>
<g>
	<path fill="none" stroke="#AE715E" stroke-width="2" stroke-linecap="round" stroke-miterlimit="10" d="M644.6,235.9
		c0,0-18.7-18.7-24.7-24.7c-2.2-2.2,2.2-10-0.1-12.3c-1.6-1.6-6.5-6.4-6.5-6.4"/>
	<path fill="none" stroke="#AE715E" stroke-width="2" stroke-linecap="round" stroke-miterlimit="10" d="M613.3,204.6
		c0,0-3.5-3.5-6.1-6.1c-2.2-2.2,2.2-10,0-12.2c-2.2-2.2-6.3-6.3-6.3-6.3"/>
	<path fill="none" stroke="#AE715E" stroke-width="2" stroke-linecap="round" stroke-miterlimit="10" d="M601,192.3
		c0,0-3.2-3.2-6.2-6.2c-2.2-2.2,2.2-10,0-12.2c-2.2-2.2-10.5-10.5-10.5-10.5"/>
	<path fill="none" stroke="#AE715E" stroke-width="2" stroke-linecap="round" stroke-miterlimit="10" d="M612.7,216.6
		c0,0-9.9,2.3-12.1,0.1l-6.6-6.6"/>
	<path fill="none" stroke="#AE715E" stroke-width="2" stroke-linecap="round" stroke-miterlimit="10" d="M600.1,204.1
		c0,0-10.1,2.1-12.3-0.1l-6.2-6.2"/>
	<path fill="none" stroke="#AE715E" stroke-width="2" stroke-linecap="round" stroke-miterlimit="10" d="M587.7,191.7
		c0,0-10.1,2.2-12.2,0L565,181.2"/>
	
		<line fill="none" stroke="#AE715E" stroke-width="2" stroke-linecap="round" stroke-miterlimit="10" x1="582.4" y1="180" x2="567.5" y2="165.1"/>
</g>
<g>
	<path fill="none" stroke="#AE715E" stroke-width="2" stroke-linecap="round" stroke-miterlimit="10" d="M644.6,746
		c0,0-18.7,18.7-24.7,24.7c-2.2,2.2,2.2,10-0.1,12.3c-1.6,1.6-6.5,6.4-6.5,6.4"/>
	<path fill="none" stroke="#AE715E" stroke-width="2" stroke-linecap="round" stroke-miterlimit="10" d="M613.3,777.3
		c0,0-3.5,3.5-6.1,6.1c-2.2,2.2,2.2,10,0,12.2c-2.2,2.1-6.3,6.3-6.3,6.3"/>
	<path fill="none" stroke="#AE715E" stroke-width="2" stroke-linecap="round" stroke-miterlimit="10" d="M601,789.6
		c0,0-3.2,3.2-6.2,6.2c-2.2,2.2,2.2,10,0,12.2c-2.2,2.2-10.5,10.5-10.5,10.5"/>
	<path fill="none" stroke="#AE715E" stroke-width="2" stroke-linecap="round" stroke-miterlimit="10" d="M612.7,765.2
		c0,0-9.9-2.2-12.1-0.1l-6.6,6.6"/>
	<path fill="none" stroke="#AE715E" stroke-width="2" stroke-linecap="round" stroke-miterlimit="10" d="M600.1,777.7
		c0,0-10.1-2.1-12.3,0.1l-6.2,6.2"/>
	<path fill="none" stroke="#AE715E" stroke-width="2" stroke-linecap="round" stroke-miterlimit="10" d="M587.7,790.2
		c0,0-10.1-2.2-12.2,0c-1.7,1.7-10.5,10.5-10.5,10.5"/>
	
		<line fill="none" stroke="#AE715E" stroke-width="2" stroke-linecap="round" stroke-miterlimit="10" x1="582.4" y1="801.9" x2="567.5" y2="816.7"/>
</g>
<g>
	<path fill="none" stroke="#AE715E" stroke-width="2" stroke-linecap="round" stroke-miterlimit="10" d="M611.9,746
		c0,0,18.7,18.7,24.7,24.7c2.2,2.2-2.2,10,0.1,12.3c1.6,1.6,6.5,6.4,6.5,6.4"/>
	<path fill="none" stroke="#AE715E" stroke-width="2" stroke-linecap="round" stroke-miterlimit="10" d="M643.2,777.3
		c0,0,3.5,3.5,6.1,6.1c2.2,2.2-2.2,10,0,12.2c2.2,2.1,6.3,6.3,6.3,6.3"/>
	<path fill="none" stroke="#AE715E" stroke-width="2" stroke-linecap="round" stroke-miterlimit="10" d="M655.5,789.6l6.2,6.2
		c2.2,2.2-2.2,10,0,12.2c2.2,2.2,10.5,10.5,10.5,10.5"/>
	<path fill="none" stroke="#AE715E" stroke-width="2" stroke-linecap="round" stroke-miterlimit="10" d="M643.8,765.2
		c0,0,9.9-2.2,12.1-0.1c2,2,6.6,6.6,6.6,6.6"/>
	<path fill="none" stroke="#AE715E" stroke-width="2" stroke-linecap="round" stroke-miterlimit="10" d="M656.3,777.7
		c0,0,10.1-2.1,12.3,0.1l6.2,6.2"/>
	<path fill="none" stroke="#AE715E" stroke-width="2" stroke-linecap="round" stroke-miterlimit="10" d="M668.7,790.2
		c0,0,10-2.2,12.2,0c1.7,1.7,10.5,10.5,10.5,10.5"/>
	
		<line fill="none" stroke="#AE715E" stroke-width="2" stroke-linecap="round" stroke-miterlimit="10" x1="674.1" y1="801.9" x2="688.9" y2="816.7"/>
</g>
<path fill="none" stroke="#2D4D58" stroke-width="2" stroke-miterlimit="10" d="M974,487.6c0,63.8-23,122-52.8,173.6
	c-30.8,53.2-70.7,101.9-123.9,132.6c-51.5,29.8-113,40.9-176.8,40.9c-63.8,0-125.2-11.1-176.8-40.9
	c-53.2-30.8-93.1-79.5-123.9-132.6C290,609.7,267,551.5,267,487.6c0-63.8,23-122,52.8-173.6c30.8-53.2,70.7-101.9,123.9-132.6
	c51.5-29.8,113-40.9,176.8-40.9c63.8,0,125.2,11.1,176.8,40.9c53.2,30.8,93.1,79.5,123.9,132.6C951,365.6,974,423.8,974,487.6z"/>
<path fill="none" stroke="#5C5C60" stroke-width="2" stroke-miterlimit="10" d="M974,487.6c0,63.8-23,122-52.8,173.6
	c-30.8,53.2-70.7,101.9-123.9,132.6c-51.5,29.8-113,40.9-176.8,40.9c-63.8,0-125.2-11.1-176.8-40.9
	c-53.2-30.8-93.1-79.5-123.9-132.6C290,609.7,267,551.5,267,487.6c0-63.8,23-122,52.8-173.6c30.8-53.2,70.7-101.9,123.9-132.6
	c51.5-29.8,113-40.9,176.8-40.9c63.8,0,125.2,11.1,176.8,40.9c53.2,30.8,93.1,79.5,123.9,132.6C951,365.6,974,423.8,974,487.6z"/>
<path fill="none" stroke="#434243" stroke-width="2" stroke-miterlimit="10" d="M620.5,134.2c63.8,0,122,23,173.6,52.8
	c53.2,30.8,101.9,70.7,132.6,123.9c29.8,51.5,40.9,113,40.9,176.8c0,63.8-11.1,125.2-40.9,176.8c-30.8,53.2-79.5,93.1-132.6,123.9
	c-51.5,29.8-109.8,52.8-173.6,52.8c-63.8,0-122-23-173.6-52.8c-53.2-30.8-101.9-70.7-132.6-123.9c-29.8-51.5-40.9-113-40.9-176.8
	c0-63.8,11.1-125.2,40.9-176.8c30.8-53.2,79.5-93.1,132.6-123.9C498.5,157.2,556.7,134.2,620.5,134.2z"/>
</svg>
