<?xml version="1.0" encoding="utf-8"?>
<!-- Generator: Adobe Illustrator 19.1.0, SVG Export Plug-In . SVG Version: 6.00 Build 0)  -->
<svg version="1.2" baseProfile="tiny" id="Layer_1" xmlns="http://www.w3.org/2000/svg" xmlns:xlink="http://www.w3.org/1999/xlink"
	 x="0px" y="0px" viewBox="0 0 1000 1000" xml:space="preserve">
<path fill="none" stroke="#7F5E40" stroke-width="2" stroke-linecap="round" stroke-miterlimit="10" d="M227,765.6
	c-3,3-3.2,2.9-6.2,5.9c-3,3-2.6,3.4-5.7,6.5c-3,3-1.9,4.2-4.9,7.3c-3,3-2.5,3.6-5.5,6.6c-3,3-3.5,2.6-6.5,5.6c-3,3-3.9,2.2-6.9,5.2
	c-3,3-2.5,3.5-5.6,6.6c-3,3-4.1,2-7.1,5c-3,3-3.3,2.8-6.3,5.8c-3,3-2,4.1-5,7.1c-3,3-3.6,2.5-6.6,5.5c-3,3-3.1,3-6.1,6.1
	c-3,3-3.1,2.9-6.2,6c-3,3-1.9,4.2-4.9,7.3c-3,3-4.1,1.9-7.2,5"/>
<path fill="none" stroke="#7F5E40" stroke-width="2" stroke-linecap="round" stroke-miterlimit="10" d="M340.3,841.2
	c-1.6,4-1.7,4-3.3,7.9c-1.6,4-3.7,3.1-5.3,7.1c-1.6,4-0.7,4.4-2.3,8.3c-1.6,4-3.3,3.3-4.9,7.3c-1.6,4-1.9,3.9-3.5,7.8
	c-1.6,4-1,4.2-2.6,8.2c-1.6,4,0.4,4.8-1.3,8.8c-1.6,4-0.7,4.4-2.3,8.3c-1.6,4-2.4,3.6-4.1,7.6c-1.6,4-3.1,3.4-4.7,7.3
	c-1.6,4-0.8,4.3-2.4,8.3c-1.6,4-3.4,3.2-5.1,7.2c-1.6,4-2.1,3.8-3.7,7.8c-1.6,4,0.2,4.7-1.5,8.7c-1.6,4-2.6,3.6-4.2,7.6"/>
<path fill="none" stroke="#7F5E40" stroke-width="2" stroke-linecap="round" stroke-miterlimit="10" d="M472.4,866.8
	c0,4.3-2.6,4.3-2.6,8.6c0,4.3-0.5,4.3-0.5,8.6c0,4.3,2.1,4.3,2.1,8.6c0,4.3,0.2,4.3,0.2,8.6c0,4.3,0,4.3,0,8.6
	c0,4.3-2.4,4.3-2.4,8.6c0,4.3,1.1,4.3,1.1,8.6c0,4.3-1.9,4.3-1.9,8.6c0,4.3-0.3,4.3-0.3,8.6c0,4.3,0.8,4.3,0.8,8.6
	c0,4.3,2.4,4.3,2.4,8.6c0,4.3,1.1,4.3,1.1,8.6c0,4.3-0.9,4.3-0.9,8.6c0,4.3-1.7,4.3-1.7,8.6c0,4.3,1,4.3,1,8.6"/>
<path fill="none" stroke="#7F5E40" stroke-width="2" stroke-linecap="round" stroke-miterlimit="10" d="M603.5,839.9
	c1.6,4,0.1,4.6,1.7,8.6c1.6,4,2.9,3.4,4.5,7.4c1.6,4-1,5.1,0.6,9c1.6,4,4.4,2.8,6.1,6.8c1.6,4-0.6,4.9,1,8.9c1.6,4,1.2,4.1,2.9,8.1
	c1.6,4,3.4,3.2,5.1,7.2c1.6,4,1.8,3.9,3.5,7.9c1.6,4,1.6,4,3.3,7.9c1.6,4-0.4,4.8,1.3,8.8c1.6,4,2.6,3.6,4.3,7.5
	c1.6,4,0,4.6,1.7,8.6c1.6,4,1.4,4.1,3,8c1.6,4,2.3,3.7,4,7.7c1.6,4,3.7,3.1,5.3,7.1"/>
<path fill="none" stroke="#7F5E40" stroke-width="2" stroke-linecap="round" stroke-miterlimit="10" d="M181.8,709.2
	c-3.6,2.3-3.7,2.2-7.3,4.5c-3.6,2.3-4.5,0.9-8.1,3.2c-3.6,2.3-2.6,3.9-6.2,6.2s-4.3,1.2-7.9,3.5c-3.6,2.3-3.8,1.9-7.5,4.2
	c-3.6,2.3-3.9,1.8-7.6,4.1c-3.6,2.3-3.1,3.2-6.7,5.5c-3.6,2.3-3.8,2-7.4,4.3c-3.6,2.3-4,1.7-7.6,4c-3.6,2.3-3,3.2-6.7,5.5"/>
<path fill="none" stroke="#7F5E40" stroke-width="2" stroke-linecap="round" stroke-miterlimit="10" d="M274.5,805.4
	c-2.5,3.5-2.7,3.3-5.1,6.9c-2.5,3.5-3.9,2.5-6.4,6c-2.5,3.5-0.7,4.8-3.1,8.3c-2.5,3.5-2.6,3.4-5.1,6.9c-2.5,3.5-3.8,2.6-6.2,6.1
	c-2.5,3.5-0.9,4.6-3.4,8.1c-2.5,3.5-3.4,2.8-5.9,6.3c-2.5,3.5-2.8,3.3-5.3,6.8c-2.5,3.5-2.9,3.2-5.4,6.7s-1.7,4.1-4.1,7.6"/>
<path fill="none" stroke="#7F5E40" stroke-width="2" stroke-linecap="round" stroke-miterlimit="10" d="M397.1,858.9
	c-0.9,4.2-2.4,3.8-3.4,8c-0.9,4.2-1.9,4-2.8,8.1c-0.9,4.2,1.7,4.8,0.7,8.9c-0.9,4.2-1.3,4.1-2.2,8.3c-0.9,4.2-3,3.7-3.9,7.9
	c-0.9,4.2,1.6,4.7,0.7,8.9c-0.9,4.2-1.1,4.1-2.1,8.3c-0.9,4.2-2.8,3.8-3.7,7.9c-0.9,4.2,1.3,4.7,0.3,8.9c-0.9,4.2-2.3,3.9-3.3,8.1"
	/>
<path fill="none" stroke="#7F5E40" stroke-width="2" stroke-linecap="round" stroke-miterlimit="10" d="M530.2,861.5
	c0.7,4.2-1.3,4.6-0.6,8.8c0.7,4.2,1.9,4,2.6,8.2c0.7,4.2,2.3,3.9,3.1,8.2s-0.8,4.5,0,8.7c0.7,4.2-0.3,4.4,0.5,8.6
	c0.7,4.2,3.4,3.8,4.1,8c0.7,4.2,0.4,4.3,1.2,8.5c0.7,4.2-1.4,4.6-0.6,8.8c0.7,4.2,3.3,3.8,4.1,8s0.5,4.3,1.3,8.5"/>
<path fill="none" stroke="#7F5E40" stroke-width="2" stroke-linecap="round" stroke-miterlimit="10" d="M655.3,812.6
	c2.3,3.6,2,3.8,4.3,7.4c2.3,3.6,1.9,3.9,4.2,7.5c2.3,3.6,2.5,3.5,4.8,7.1c2.3,3.6,0.8,4.6,3.1,8.2s3.1,3.1,5.4,6.7
	c2.3,3.6,3.5,2.9,5.8,6.5c2.3,3.6,1.2,4.3,3.5,7.9c2.3,3.6,1.6,4.1,3.9,7.7c2.3,3.6,4.2,2.4,6.5,6c2.3,3.6,2.1,3.8,4.4,7.4"/>
<path fill="none" stroke="#7F5E40" stroke-width="2" stroke-linecap="round" stroke-miterlimit="10" d="M750.2,721.8
	c3.5,2.5,5.1,0.2,8.6,2.7c3.5,2.5,3.3,2.7,6.8,5.2c3.5,2.5,3.5,2.5,7,4.9s3.3,2.7,6.8,5.2c3.5,2.5,3.2,2.8,6.8,5.3
	c3.5,2.5,3.6,2.3,7.1,4.8c3.5,2.5,2.5,3.9,6,6.4c3.5,2.5,4.1,1.7,7.6,4.1c3.5,2.5,4.3,1.4,7.8,3.8c3.5,2.5,2.8,3.5,6.3,6"/>
<path fill="none" stroke="#7F5E40" stroke-width="2" stroke-linecap="round" stroke-miterlimit="10" d="M208.8,736.5
	c-3.1,2.5-3.1,2.5-6.2,5c-3.1,2.5-2.9,2.7-6,5.2c-3.1,2.5-3.5,2-6.5,4.6c-3.1,2.5-3.3,2.2-6.4,4.7c-3.1,2.5-2.5,3.2-5.5,5.8"/>
<path fill="none" stroke="#7F5E40" stroke-width="2" stroke-linecap="round" stroke-miterlimit="10" d="M310.7,819.8
	c-1.9,3.5-1.4,3.7-3.2,7.2c-1.9,3.5-1.7,3.6-3.5,7.1c-1.9,3.5-1.9,3.5-3.8,6.9c-1.9,3.5-1.7,3.6-3.5,7.1c-1.9,3.5-2.5,3.2-4.4,6.7"
	/>
<path fill="none" stroke="#7F5E40" stroke-width="2" stroke-linecap="round" stroke-miterlimit="10" d="M437,858
	c-0.4,3.9,1.1,4.1,0.7,8c-0.4,3.9-1.5,3.8-1.9,7.8c-0.4,3.9,0.2,4-0.2,7.9c-0.4,3.9-0.1,4-0.5,7.9s-0.5,3.9-0.9,7.9"/>
<path fill="none" stroke="#7F5E40" stroke-width="2" stroke-linecap="round" stroke-miterlimit="10" d="M569.8,844.7
	c1.2,3.8,0.1,4.1,1.3,7.9c1.2,3.8,1.1,3.8,2.2,7.6c1.2,3.8,2.5,3.4,3.7,7.1c1.2,3.8,0.1,4.1,1.2,7.9c1.2,3.8,1.7,3.6,2.9,7.4"/>
<path fill="none" stroke="#7F5E40" stroke-width="2" stroke-linecap="round" stroke-miterlimit="10" d="M686.3,781.9
	c2.5,3.1,2,3.5,4.5,6.5c2.5,3.1,3,2.7,5.5,5.7c2.5,3.1,1.8,3.6,4.4,6.7c2.5,3.1,2.5,3.1,5,6.2c2.5,3.1,3.4,2.3,5.9,5.4"/>
<path fill="none" stroke="#7F5E40" stroke-width="2" stroke-linecap="round" stroke-miterlimit="10" d="M208.5,736.1
	c-3.1,2.5-3.3,2.2-6.3,4.8c-3.1,2.5-3.1,2.5-6.1,5c-3.1,2.5-2.5,3.2-5.6,5.7c-3.1,2.5-3.6,1.8-6.7,4.3c-3.1,2.5-3,2.6-6,5.1"/>
<path fill="none" stroke="#7F5E40" stroke-width="2" stroke-linecap="round" stroke-miterlimit="10" d="M310.8,819.8
	c-1.9,3.5-1.1,3.9-3,7.4c-1.9,3.5-2.4,3.2-4.3,6.7c-1.9,3.5-2.2,3.3-4.1,6.8c-1.9,3.5-1.9,3.5-3.8,7c-1.9,3.5-1,3.9-2.9,7.4"/>
<path fill="none" stroke="#7F5E40" stroke-width="2" stroke-linecap="round" stroke-miterlimit="10" d="M437.4,858.1
	c-0.4,3.9-0.4,3.9-0.7,7.9c-0.4,3.9-0.4,3.9-0.8,7.9c-0.4,3.9,0.6,4,0.2,8c-0.4,3.9-1.1,3.9-1.5,7.8c-0.4,3.9-0.8,3.9-1.2,7.8"/>
<path fill="none" stroke="#7F5E40" stroke-width="2" stroke-linecap="round" stroke-miterlimit="10" d="M568.9,845
	c1.2,3.8,2.3,3.4,3.4,7.2c1.2,3.8,0.2,4.1,1.3,7.9c1.2,3.8,1.2,3.8,2.3,7.6c1.2,3.8,1.1,3.8,2.3,7.6c1.2,3.8,2,3.5,3.2,7.3"/>
<path fill="none" stroke="#7F5E40" stroke-width="2" stroke-linecap="round" stroke-miterlimit="10" d="M686.4,781.8
	c2.5,3.1,1.7,3.7,4.3,6.8c2.5,3.1,2.5,3,5.1,6.1c2.5,3.1,3.2,2.5,5.8,5.5c2.5,3.1,1.9,3.6,4.4,6.6c2.5,3.1,2.5,3,5.1,6.1"/>
<line fill="none" stroke="#7F5E40" stroke-width="2" stroke-linecap="round" stroke-miterlimit="10" x1="722.7" y1="757.4" x2="824" y2="858.6"/>
<path fill="none" stroke="#7F5E40" stroke-width="2" stroke-linecap="round" stroke-miterlimit="10" d="M734,255.3
	c3.1-2.5,2.8-2.9,5.8-5.5c3.1-2.5,3.2-2.4,6.2-5c3.1-2.5,2.9-2.8,6-5.3c3.1-2.5,2.9-2.8,6-5.3s3.4-2.1,6.5-4.7"/>
<path fill="none" stroke="#7F5E40" stroke-width="2" stroke-linecap="round" stroke-miterlimit="10" d="M471.6,133.7
	c0-4.3-3.9-4.3-3.9-8.6c0-4.3,3.9-4.3,3.9-8.6c0-4.3-2.2-4.3-2.2-8.6c0-4.3,1.2-4.3,1.2-8.6c0-4.3,0.9-4.3,0.9-8.6
	c0-4.3,0.7-4.3,0.7-8.6c0-4.3,0-4.3,0-8.6c0-4.3-0.9-4.3-0.9-8.6c0-4.3,0.8-4.3,0.8-8.6c0-4.3-2-4.3-2-8.6c0-4.3-2.1-4.3-2.1-8.6
	c0-4.3,3-4.3,3-8.6c0-4.3-0.1-4.3-0.1-8.6c0-4.3-2.7-4.3-2.7-8.6s2.6-4.3,2.6-8.6"/>
<path fill="none" stroke="#7F5E40" stroke-width="2" stroke-linecap="round" stroke-miterlimit="10" d="M339.9,159.4
	c-1.6-4-1.5-4-3.1-8c-1.6-4-3.6-3.1-5.3-7.1c-1.6-4,0.2-4.7-1.4-8.7c-1.6-4-1.4-4.1-3-8c-1.6-4-5-2.6-6.6-6.6
	c-1.6-4,1.7-5.4,0.1-9.3c-1.6-4-3.5-3.2-5.2-7.1c-1.6-4-0.6-4.4-2.2-8.4s-0.9-4.3-2.5-8.2c-1.6-4-1.1-4.2-2.7-8.2
	c-1.6-4-1.6-4-3.3-7.9c-1.6-4-2.4-3.6-4.1-7.6c-1.6-4-0.9-4.3-2.6-8.2c-1.6-4-3.4-3.2-5-7.2s-3.4-3.2-5-7.2"/>
<path fill="none" stroke="#7F5E40" stroke-width="2" stroke-linecap="round" stroke-miterlimit="10" d="M228.6,233.4
	c-3-3-2.8-3.3-5.8-6.3c-3-3-4.1-2-7.1-5c-3-3-2.5-3.6-5.5-6.6c-3-3-3-3.1-6.1-6.1c-3-3-2.9-3.1-6-6.2c-3-3-4.2-1.9-7.2-4.9
	c-3-3-1.9-4.1-5-7.2c-3-3-2.9-3.2-5.9-6.2c-3-3-5-1.1-8-4.1c-3-3-1.1-5-4.1-8c-3-3-4.2-1.9-7.2-5c-3-3-2.4-3.7-5.5-6.7
	c-3-3-2.6-3.5-5.6-6.5c-3-3-2.7-3.4-5.7-6.4c-3-3-3-3.1-6.1-6.1"/>
<path fill="none" stroke="#7F5E40" stroke-width="2" stroke-linecap="round" stroke-miterlimit="10" d="M152.8,347.2
	c-4-1.6-3.6-2.4-7.6-4.1c-4-1.6-3.4-3.1-7.3-4.7c-4-1.6-4.3-0.8-8.3-2.4c-4-1.6-3.2-3.4-7.2-5.1c-4-1.6-3.8-2.1-7.8-3.7
	c-4-1.6-4.7,0.2-8.7-1.5c-4-1.6-3.6-2.6-7.5-4.2c-4-1.6-4-1.7-7.9-3.3c-4-1.6-3.9-1.8-7.9-3.5c-4-1.6-4.8,0.4-8.8-1.3
	c-4-1.6-3.2-3.5-7.2-5.2c-4-1.6-3.9-1.9-7.8-3.5c-4-1.6-5.3,1.7-9.3,0c-4-1.6-2.6-5-6.6-6.6c-4-1.6-4.8,0.3-8.7-1.4"/>
<path fill="none" stroke="#7F5E40" stroke-width="2" stroke-linecap="round" stroke-miterlimit="10" d="M786.5,344.4
	c4-1.6,3.5-2.7,7.5-4.3c4-1.6,4.5-0.3,8.5-2c4-1.6,3.4-3,7.4-4.6c4-1.6,3.9-1.8,7.9-3.4c4-1.6,4.6-0.1,8.6-1.7
	c4-1.6,3.4-2.9,7.4-4.5c4-1.6,5.1,1,9-0.6c4-1.6,2.8-4.4,6.8-6.1s4.9,0.6,8.9-1c4-1.6,4.1-1.2,8.1-2.9c4-1.6,3.2-3.4,7.2-5.1
	c4-1.6,3.9-1.8,7.9-3.5c4-1.6,4-1.6,7.9-3.3c4-1.6,4.8,0.4,8.8-1.3c4-1.6,3.6-2.6,7.5-4.3"/>
<path fill="none" stroke="#7F5E40" stroke-width="2" stroke-linecap="round" stroke-miterlimit="10" d="M713.7,235.2
	c3-3,2-4.1,5-7.1c3-3,1.9-4.1,5-7.2c3-3,4.6-1.4,7.7-4.5c3-3,2-4.1,5-7.1c3-3,2.4-3.6,5.5-6.7c3-3,3.8-2.3,6.8-5.3
	c3-3,2.3-3.8,5.3-6.8c3-3,2.9-3.1,6-6.2s3.9-2.1,7-5.2c3-3,2.3-3.8,5.3-6.8c3-3,4.6-1.5,7.6-4.5c3-3,1.4-4.7,4.4-7.7
	c3-3,4.4-1.7,7.4-4.8c3-3,3.3-2.8,6.3-5.8c3-3,2-4.1,5-7.1"/>
<path fill="none" stroke="#7F5E40" stroke-width="2" stroke-linecap="round" stroke-miterlimit="10" d="M603.5,160.7
	c1.6-4-1-5,0.7-9c1.6-4,1.8-3.9,3.5-7.9c1.6-4,2.5-3.6,4.1-7.6c1.6-4,3-3.4,4.6-7.4c1.6-4-0.1-4.7,1.5-8.7c1.6-4-0.3-4.8,1.4-8.7
	c1.6-4,4.4-2.8,6-6.8c1.6-4-0.2-4.7,1.5-8.7c1.6-4,0.6-4.4,2.3-8.4c1.6-4,2.9-3.4,4.6-7.4c1.6-4,0.3-4.5,2-8.5c1.6-4,1.5-4,3.1-8
	c1.6-4,3.2-3.3,4.8-7.3c1.6-4,0.4-4.5,2-8.5s4.3-2.9,6-6.8"/>
<path fill="none" stroke="#7F5E40" stroke-width="2" stroke-linecap="round" stroke-miterlimit="10" d="M412,138.7
	c-0.7-4.2-2-4-2.7-8.2c-0.7-4.2-0.1-4.3-0.8-8.6c-0.7-4.2,0.1-4.4-0.6-8.6c-0.7-4.2-2.7-3.9-3.5-8.1c-0.7-4.2-0.6-4.2-1.3-8.5
	c-0.7-4.2-0.1-4.3-0.8-8.5c-0.7-4.2,0.3-4.4-0.5-8.6c-0.7-4.2-2.1-4-2.8-8.2c-0.7-4.2-2.2-4-2.9-8.2s1.3-4.6,0.6-8.8"/>
<path fill="none" stroke="#7F5E40" stroke-width="2" stroke-linecap="round" stroke-miterlimit="10" d="M287,186.8
	c-2.3-3.6-3.2-3.1-5.5-6.7c-2.3-3.6-2-3.8-4.3-7.4c-2.3-3.6-1.7-4-4-7.6c-2.3-3.6-3.2-3-5.5-6.7c-2.3-3.6-1.8-3.9-4.1-7.5
	c-2.3-3.6-1.7-4-4-7.6c-2.3-3.6-3.7-2.7-6.1-6.3c-2.3-3.6-2.2-3.7-4.5-7.3c-2.3-3.6-1.8-3.9-4.1-7.5c-2.3-3.6-1.6-4.1-3.9-7.7"/>
<path fill="none" stroke="#7F5E40" stroke-width="2" stroke-linecap="round" stroke-miterlimit="10" d="M188.8,280.8
	c-3.5-2.5-2.8-3.5-6.3-5.9c-3.5-2.5-3.3-2.8-6.8-5.3c-3.5-2.5-3.2-2.9-6.7-5.4c-3.5-2.5-4.1-1.7-7.6-4.1c-3.5-2.5-3.3-2.7-6.8-5.2
	c-3.5-2.5-3.1-3-6.6-5.5c-3.5-2.5-4.1-1.6-7.6-4.1c-3.5-2.5-3.2-2.9-6.7-5.4c-3.5-2.5-3.1-3.1-6.6-5.5s-4.5-1.1-8-3.6"/>
<path fill="none" stroke="#7F5E40" stroke-width="2" stroke-linecap="round" stroke-miterlimit="10" d="M759.2,292.1
	c3.6-2.3,4-1.6,7.6-3.9c3.6-2.3,3.1-3.2,6.7-5.5c3.6-2.3,4.6-0.8,8.2-3.1c3.6-2.3,2.1-4.7,5.7-7c3.6-2.3,3.8-2,7.4-4.3
	c3.6-2.3,3.6-2.3,7.2-4.6c3.6-2.3,3.8-2,7.4-4.3c3.6-2.3,3.9-1.9,7.5-4.2c3.6-2.3,3.5-2.5,7.1-4.8c3.6-2.3,4.6-0.8,8.2-3.1"/>
<path fill="none" stroke="#7F5E40" stroke-width="2" stroke-linecap="round" stroke-miterlimit="10" d="M666.2,195.3
	c2.5-3.5,2.2-3.7,4.7-7.2c2.5-3.5,2.9-3.2,5.3-6.7c2.5-3.5,2.8-3.3,5.2-6.8s3.1-3.1,5.5-6.6c2.5-3.5,1.6-4.1,4.1-7.6
	c2.5-3.5,3.9-2.5,6.4-6c2.5-3.5,0.2-5.1,2.7-8.6c2.5-3.5,2.7-3.3,5.2-6.8c2.5-3.5,2.5-3.5,4.9-7c2.5-3.5,2.8-3.3,5.2-6.8"/>
<path fill="none" stroke="#7F5E40" stroke-width="2" stroke-linecap="round" stroke-miterlimit="10" d="M545.6,142.1
	c0.9-4.2-1.8-4.8-0.9-9c0.9-4.2,2.3-3.9,3.3-8c0.9-4.2,0.3-4.3,1.2-8.5c0.9-4.2,0.6-4.3,1.5-8.4c0.9-4.2,1.6-4,2.5-8.2
	c0.9-4.2,1.4-4.1,2.3-8.3c0.9-4.2,1.8-4,2.7-8.2c0.9-4.2-0.2-4.4,0.7-8.6c0.9-4.2,3-3.7,3.9-7.9s-2.3-4.9-1.3-9.1"/>
<path fill="none" stroke="#7F5E40" stroke-width="2" stroke-linecap="round" stroke-miterlimit="10" d="M371.7,148.3
	c-1.2-3.8-1.8-3.6-3-7.4c-1.2-3.8-0.6-4-1.7-7.7c-1.2-3.8-2.4-3.4-3.5-7.2c-1.2-3.8-0.5-4-1.7-7.8s-1.5-3.7-2.6-7.5"/>
<path fill="none" stroke="#7F5E40" stroke-width="2" stroke-linecap="round" stroke-miterlimit="10" d="M255,210.8
	c-2.5-3.1-3.2-2.5-5.8-5.5c-2.5-3.1-1.8-3.6-4.4-6.7c-2.5-3.1-2.9-2.7-5.5-5.8c-2.5-3.1-2.2-3.4-4.7-6.4c-2.5-3.1-3.3-2.4-5.8-5.5"
	/>
<path fill="none" stroke="#7F5E40" stroke-width="2" stroke-linecap="round" stroke-miterlimit="10" d="M170.6,314.1
	c-3.5-1.9-3.2-2.5-6.7-4.3c-3.5-1.9-3.3-2.3-6.8-4.1c-3.5-1.9-4-0.9-7.5-2.8c-3.5-1.9-3-2.7-6.5-4.6c-3.5-1.9-3.8-1.3-7.3-3.2"/>
<path fill="none" stroke="#7F5E40" stroke-width="2" stroke-linecap="round" stroke-miterlimit="10" d="M629.3,173.3
	c1.9-3.5,2.4-3.2,4.3-6.7c1.9-3.5,1.1-3.9,2.9-7.4c1.9-3.5,2.5-3.1,4.4-6.6c1.9-3.5,1.2-3.8,3.1-7.3c1.9-3.5,2.8-3,4.6-6.5"/>
<path fill="none" stroke="#7F5E40" stroke-width="2" stroke-linecap="round" stroke-miterlimit="10" d="M502.5,135.2
	c0.4-3.9,0.6-3.9,1-7.9c0.4-3.9,0.2-4,0.6-7.9c0.4-3.9,1.1-3.9,1.5-7.8c0.4-3.9-0.6-4-0.2-8c0.4-3.9,1.2-3.9,1.6-7.8"/>
<path fill="none" stroke="#7F5E40" stroke-width="2" stroke-linecap="round" stroke-miterlimit="10" d="M371.2,148.5
	c-1.2-3.8-1.4-3.7-2.5-7.5c-1.2-3.8-1.3-3.7-2.5-7.5c-1.2-3.8-0.9-3.9-2.1-7.6c-1.2-3.8-1.3-3.7-2.5-7.5s-0.5-4-1.7-7.8"/>
<path fill="none" stroke="#7F5E40" stroke-width="2" stroke-linecap="round" stroke-miterlimit="10" d="M371.4,148.4
	c-1.2-3.8-1-3.8-2.1-7.6c-1.2-3.8-1.5-3.7-2.7-7.5c-1.2-3.8-1.4-3.7-2.5-7.5c-1.2-3.8-1.3-3.7-2.5-7.5c-1.2-3.8-0.9-3.9-2.1-7.7"/>
<path fill="none" stroke="#7F5E40" stroke-width="2" stroke-linecap="round" stroke-miterlimit="10" d="M255,210.8
	c-2.5-3.1-2.6-3-5.1-6c-2.5-3.1-2.7-2.9-5.2-6c-2.5-3.1-2.4-3.1-4.9-6.2c-2.5-3.1-2.7-2.9-5.3-5.9c-2.5-3.1-2.7-2.9-5.2-6"/>
<path fill="none" stroke="#7F5E40" stroke-width="2" stroke-linecap="round" stroke-miterlimit="10" d="M171.1,313.1
	c-3.5-1.9-3.9-1-7.4-2.9c-3.5-1.9-3-2.8-6.5-4.7c-3.5-1.9-3.6-1.7-7.1-3.6c-3.5-1.9-3.6-1.6-7.1-3.5c-3.5-1.9-3.4-2-6.9-3.9"/>
<path fill="none" stroke="#7F5E40" stroke-width="2" stroke-linecap="round" stroke-miterlimit="10" d="M628.9,173.1
	c1.9-3.5,1.9-3.5,3.8-7c1.9-3.5,1.7-3.6,3.6-7.1c1.9-3.5,2.9-3,4.7-6.4c1.9-3.5,1.8-3.5,3.7-7c1.9-3.5,0.9-4,2.8-7.5"/>
<path fill="none" stroke="#7F5E40" stroke-width="2" stroke-linecap="round" stroke-miterlimit="10" d="M502.9,135.3
	c0.4-3.9-0.3-4,0-8c0.4-3.9,0.2-4,0.6-7.9c0.4-3.9,0.5-3.9,0.9-7.9c0.4-3.9,0.2-4,0.6-7.9c0.4-3.9,1.7-3.8,2.1-7.8"/>
<path fill="none" stroke="#7F5E40" stroke-width="2" stroke-linecap="round" stroke-miterlimit="10" d="M371.7,148.3
	c-1.2-3.8-1.2-3.8-2.4-7.6c-1.2-3.8-1.5-3.7-2.7-7.5c-1.2-3.8-1.8-3.6-3-7.4c-1.2-3.8-1.3-3.7-2.5-7.5c-1.2-3.8-1.1-3.8-2.2-7.6"/>
</svg>
