<?xml version="1.0" encoding="utf-8"?>
<!-- Generator: Adobe Illustrator 19.1.0, SVG Export Plug-In . SVG Version: 6.00 Build 0)  -->
<svg version="1.2" baseProfile="tiny" id="Layer_1" xmlns="http://www.w3.org/2000/svg" xmlns:xlink="http://www.w3.org/1999/xlink"
	 x="0px" y="0px" viewBox="0 0 1000 1000" xml:space="preserve">
<g>
	<polygon fill="none" stroke="#000000" stroke-miterlimit="10" points="153.6,263.2 111.6,338.2 64.3,242.4 	"/>
	<polygon fill="none" stroke="#000000" stroke-miterlimit="10" points="139.3,173 153.6,263.2 229.5,185.6 	"/>
	<polygon fill="none" stroke="#000000" stroke-miterlimit="10" points="64.3,242.4 77.3,194.3 153.6,263.2 	"/>
	<polygon fill="none" stroke="#000000" stroke-miterlimit="10" points="77.3,194.3 139.3,173 153.6,263.2 	"/>
	<polygon fill="none" stroke="#000000" stroke-miterlimit="10" points="139.3,173 170.5,156.1 229.5,185.6 	"/>
	<polygon fill="none" stroke="#000000" stroke-miterlimit="10" points="77.3,194.3 32.6,128.4 139.3,173 	"/>
	<polygon fill="none" stroke="#000000" stroke-miterlimit="10" points="64.3,242.4 2.7,210.7 77.3,194.3 	"/>
	<polygon fill="none" stroke="#000000" stroke-miterlimit="10" points="64.3,242.4 58.4,317 111.6,338.2 	"/>
	<polygon fill="none" stroke="#000000" stroke-miterlimit="10" points="170.5,156.1 153.6,101.9 139.3,173 	"/>
	<polygon fill="none" stroke="#000000" stroke-miterlimit="10" points="32.6,128.4 86,74.6 139.3,173 	"/>
	<polygon fill="none" stroke="#000000" stroke-miterlimit="10" points="86,74.6 153.6,101.9 139.3,173 	"/>
	<polygon fill="none" stroke="#000000" stroke-miterlimit="10" points="153.6,101.9 203.9,156.1 170.5,156.1 	"/>
	<polygon fill="none" stroke="#000000" stroke-miterlimit="10" points="170.5,156.1 229.5,185.6 203.9,156.1 	"/>
	<polygon fill="none" stroke="#000000" stroke-miterlimit="10" points="32.6,128.4 2.7,210.7 77.3,194.3 	"/>
	<polygon fill="none" stroke="#000000" stroke-miterlimit="10" points="2.7,210.7 58.4,317 64.3,242.4 	"/>
	<polygon fill="none" stroke="#000000" stroke-miterlimit="10" points="32.6,128.4 1.3,146.6 2.7,210.7 	"/>
	<polygon fill="none" stroke="#000000" stroke-miterlimit="10" points="1.3,146.6 37.5,71.6 32.6,128.4 	"/>
	<polygon fill="none" stroke="#000000" stroke-miterlimit="10" points="37.5,71.6 86,74.6 32.6,128.4 	"/>
	<polygon fill="none" stroke="#000000" stroke-miterlimit="10" points="37.5,71.6 139.3,49 86,74.6 	"/>
	<polygon fill="none" stroke="#000000" stroke-miterlimit="10" points="139.3,49 153.6,101.9 86,74.6 	"/>
	<polygon fill="none" stroke="#000000" stroke-miterlimit="10" points="139.3,49 225.9,112.7 153.6,101.9 	"/>
	<polygon fill="none" stroke="#000000" stroke-miterlimit="10" points="225.9,112.7 203.9,156.1 153.6,101.9 	"/>
	<polygon fill="none" stroke="#000000" stroke-miterlimit="10" points="203.9,156.1 261.7,161.9 229.5,185.6 	"/>
	<polygon fill="none" stroke="#000000" stroke-miterlimit="10" points="203.9,156.1 275.7,99.3 261.7,161.9 	"/>
	<polygon fill="none" stroke="#000000" stroke-miterlimit="10" points="385.8,309 344.4,288.1 330.8,346 	"/>
	<polygon fill="none" stroke="#000000" stroke-miterlimit="10" points="225.9,112.7 275.7,99.3 203.9,156.1 	"/>
	<polygon fill="none" stroke="#000000" stroke-miterlimit="10" points="349.3,331.6 385.8,309 388,340.4 	"/>
	<polygon fill="none" stroke="#000000" stroke-miterlimit="10" points="395.8,350.5 359.9,349.7 383.2,389.6 	"/>
	<polygon fill="none" stroke="#000000" stroke-miterlimit="10" points="275.7,99.3 295,137.5 261.7,161.9 	"/>
	<polygon fill="none" stroke="#000000" stroke-miterlimit="10" points="385.8,309 417.5,346 387.7,336.1 	"/>
	<polygon fill="none" stroke="#000000" stroke-miterlimit="10" points="417.5,346 395.8,350.5 383.2,389.6 	"/>
	<polygon fill="none" stroke="#000000" stroke-miterlimit="10" points="349.3,331.6 333.6,374.4 330.8,346 	"/>
	<polygon fill="none" stroke="#000000" stroke-miterlimit="10" points="349.3,331.6 383.2,389.6 333.6,374.4 	"/>
	<polygon fill="none" stroke="#000000" stroke-miterlimit="10" points="387.7,336.1 395.8,350.5 417.5,346 	"/>
	<path fill="none" stroke="#000000" stroke-miterlimit="10" d="M349.3,331.6c0,0-1.6,27,28.3,25.7c0,0,13-1.6,18.2-6.8
		c0,0-1.3-15.9-18.9-18.9C359.4,328.7,349.3,331.6,349.3,331.6z"/>
	<circle fill="none" stroke="#000000" stroke-miterlimit="10" cx="379.5" cy="340.4" r="3.7"/>
	<polygon fill="none" stroke="#000000" stroke-miterlimit="10" points="385.8,309 439.4,322.6 417.5,346 	"/>
	<polygon fill="none" stroke="#000000" stroke-miterlimit="10" points="385.8,309 417.5,280.6 439.4,322.6 	"/>
	<polygon fill="none" stroke="#000000" stroke-miterlimit="10" points="383.2,389.6 426.4,399.7 439.4,322.6 417.5,346 	"/>
	<polygon fill="none" stroke="#000000" stroke-miterlimit="10" points="383.2,389.6 406.9,416.2 426.4,399.7 	"/>
	<polygon fill="none" stroke="#000000" stroke-miterlimit="10" points="383.2,389.6 343,450.2 406.9,416.2 	"/>
	<polygon fill="none" stroke="#000000" stroke-miterlimit="10" points="333.6,374.4 343,450.2 383.2,389.6 	"/>
	<polygon fill="none" stroke="#000000" stroke-miterlimit="10" points="333.6,374.4 288.5,444.1 343,450.2 	"/>
	<polygon fill="none" stroke="#000000" stroke-miterlimit="10" points="406.9,416.2 383.2,522.5 343,449.4 	"/>
	<polygon fill="none" stroke="#000000" stroke-miterlimit="10" points="439.4,322.6 500.2,278 500.2,321.2 	"/>
	<polygon fill="none" stroke="#000000" stroke-miterlimit="10" points="439.4,322.6 450.7,435.8 500.2,321.2 	"/>
	<polygon fill="none" stroke="#000000" stroke-miterlimit="10" points="500.2,321.2 500.2,423.7 450.7,435.8 	"/>
	<polygon fill="none" stroke="#000000" stroke-miterlimit="10" points="450.7,435.8 406.9,416.2 426.4,399.7 	"/>
	<polygon fill="none" stroke="#000000" stroke-miterlimit="10" points="439.4,322.6 426.4,399.7 450.7,435.8 	"/>
	<polygon fill="none" stroke="#000000" stroke-miterlimit="10" points="450.7,435.8 457.9,456.6 500.2,423.7 	"/>
	<polygon fill="none" stroke="#000000" stroke-miterlimit="10" points="457.9,456.6 500.2,473.1 500.2,423.7 	"/>
	<polygon fill="none" stroke="#000000" stroke-miterlimit="10" points="450.7,435.8 420.7,486.1 457.9,456.6 	"/>
	<polygon fill="none" stroke="#000000" stroke-miterlimit="10" points="420.7,486.1 383.2,522.5 406.9,416.2 	"/>
	<polygon fill="none" stroke="#000000" stroke-miterlimit="10" points="406.9,416.2 450.7,435.8 420.7,486.1 	"/>
	<polygon fill="none" stroke="#000000" stroke-miterlimit="10" points="420.7,486.1 419.5,528.9 383.2,522.5 	"/>
	<polygon fill="none" stroke="#000000" stroke-miterlimit="10" points="383.2,522.5 349.3,605.3 392.1,579.8 	"/>
	<polygon fill="none" stroke="#000000" stroke-miterlimit="10" points="419.5,528.9 387.6,550.7 428.8,566.3 	"/>
	<polygon fill="none" stroke="#000000" stroke-miterlimit="10" points="419.5,528.9 387.6,550.7 383.2,522.5 	"/>
	<polygon fill="none" stroke="#000000" stroke-miterlimit="10" points="428.8,566.3 411.3,613.1 500.2,594.4 	"/>
	<polygon fill="none" stroke="#000000" stroke-miterlimit="10" points="411.3,613.1 450.7,635.7 500.2,594.4 	"/>
	<polygon fill="none" stroke="#000000" stroke-miterlimit="10" points="411.3,613.1 395.8,681.7 450.7,635.7 	"/>
	<polygon fill="none" stroke="#000000" stroke-miterlimit="10" points="349.3,605.3 411.3,613.1 392.1,579.8 	"/>
	<polygon fill="none" stroke="#000000" stroke-miterlimit="10" points="428.8,566.3 392.1,579.8 411.3,613.1 	"/>
	<polygon fill="none" stroke="#000000" stroke-miterlimit="10" points="387.6,550.7 392.1,579.8 428.8,566.3 	"/>
	<polygon fill="none" stroke="#000000" stroke-miterlimit="10" points="411.3,613.1 380.3,609.2 395.8,681.7 	"/>
	<polygon fill="none" stroke="#000000" stroke-miterlimit="10" points="450.7,635.7 500.2,629.6 500.2,594.4 	"/>
	<polygon fill="none" stroke="#000000" stroke-miterlimit="10" points="419.5,661.8 447.8,651.7 500.2,656.8 500.2,629.6 
		450.7,635.7 	"/>
	<polygon fill="none" stroke="#000000" stroke-miterlimit="10" points="419.5,528.9 482.6,516.6 472.3,550.7 	"/>
	<polygon fill="none" stroke="#000000" stroke-miterlimit="10" points="472.3,550.7 500.2,594.4 500.2,557.6 	"/>
	<polygon fill="none" stroke="#000000" stroke-miterlimit="10" points="472.3,550.7 428.8,566.3 500.2,594.4 	"/>
	<polygon fill="none" stroke="#000000" stroke-miterlimit="10" points="457.9,456.6 420.7,486.1 419.5,528.9 482.6,516.6 
		472.3,550.7 500.2,557.6 500.2,473.1 	"/>
	<polygon fill="none" stroke="#000000" stroke-miterlimit="10" points="472.3,550.7 419.5,528.9 428.8,566.3 	"/>
	<polygon fill="none" stroke="#000000" stroke-miterlimit="10" points="482.6,516.6 479,481.8 464.6,486.1 461.6,499.7 	"/>
	<polygon fill="none" stroke="#000000" stroke-miterlimit="10" points="344.4,288.1 288.5,317 288.5,389.6 	"/>
	<polygon fill="none" stroke="#000000" stroke-miterlimit="10" points="417.5,280.6 467.1,231.2 439.4,322.6 	"/>
	<polygon fill="none" stroke="#000000" stroke-miterlimit="10" points="213.8,506.9 144.4,470.4 164.7,586.2 	"/>
	<polygon fill="none" stroke="#000000" stroke-miterlimit="10" points="213.8,506.9 178.4,390.1 231.8,375.5 	"/>
	<polygon fill="none" stroke="#000000" stroke-miterlimit="10" points="231.8,375.5 246.4,290.3 288.5,317 	"/>
	<polygon fill="none" stroke="#000000" stroke-miterlimit="10" points="229.5,185.6 178.4,390.1 153.6,263.2 	"/>
	<polygon fill="none" stroke="#000000" stroke-miterlimit="10" points="153.6,263.2 111.6,338.2 178.4,390.1 	"/>
	<polygon fill="none" stroke="#000000" stroke-miterlimit="10" points="385.8,309 344.4,288.1 286,260.4 402,237.3 	"/>
	<polygon fill="none" stroke="#000000" stroke-miterlimit="10" points="402,237.3 417.5,280.6 385.8,309 	"/>
	<polygon fill="none" stroke="#000000" stroke-miterlimit="10" points="402,237.3 405.5,176.8 467.1,231.2 417.5,280.6 	"/>
	<polygon fill="none" stroke="#000000" stroke-miterlimit="10" points="286,260.4 246.4,290.3 288.5,317 	"/>
	<polygon fill="none" stroke="#000000" stroke-miterlimit="10" points="402,237.3 337.8,190.8 405.5,176.8 	"/>
	<polygon fill="none" stroke="#000000" stroke-miterlimit="10" points="365.3,210.7 402,237.3 286,260.4 	"/>
	<polygon fill="none" stroke="#000000" stroke-miterlimit="10" points="337.8,190.8 286,260.4 365.3,210.7 	"/>
	<polygon fill="none" stroke="#000000" stroke-miterlimit="10" points="286,260.4 229.5,185.6 337.8,190.8 	"/>
	<polygon fill="none" stroke="#000000" stroke-miterlimit="10" points="286,260.4 246.4,290.3 191.6,331.6 211.9,255.9 	"/>
	<polygon fill="none" stroke="#000000" stroke-miterlimit="10" points="229.5,185.6 286,260.4 211.9,255.9 	"/>
	<polygon fill="none" stroke="#000000" stroke-miterlimit="10" points="246.4,290.3 178.4,390.1 191.6,331.6 	"/>
	<polygon fill="none" stroke="#000000" stroke-miterlimit="10" points="246.4,290.3 231.8,375.5 178.4,390.1 	"/>
	<polygon fill="none" stroke="#000000" stroke-miterlimit="10" points="213.8,506.9 253,639.2 164.7,586.2 	"/>
	<polygon fill="none" stroke="#000000" stroke-miterlimit="10" points="164.7,586.2 179.8,657.9 253,639.2 	"/>
	<polygon fill="none" stroke="#000000" stroke-miterlimit="10" points="179.8,657.9 136.9,639.2 164.7,586.2 	"/>
	<polygon fill="none" stroke="#000000" stroke-miterlimit="10" points="164.7,586.2 109,572.5 136.9,639.2 	"/>
	<polygon fill="none" stroke="#000000" stroke-miterlimit="10" points="109,572.5 155,530.9 164.7,586.2 	"/>
	<polygon fill="none" stroke="#000000" stroke-miterlimit="10" points="109,572.5 96.9,530.7 155,530.9 	"/>
	<polygon fill="none" stroke="#000000" stroke-miterlimit="10" points="96.9,530.7 144.4,470.4 155,530.9 	"/>
	<polygon fill="none" stroke="#000000" stroke-miterlimit="10" points="144.4,470.4 178.4,390.1 93.4,473.1 	"/>
	<polygon fill="none" stroke="#000000" stroke-miterlimit="10" points="144.4,470.4 96.9,530.7 93.4,473.1 	"/>
	<polygon fill="none" stroke="#000000" stroke-miterlimit="10" points="178.4,390.1 213.8,506.9 144.4,470.4 	"/>
	<polygon fill="none" stroke="#000000" stroke-miterlimit="10" points="178.4,390.1 111.6,338.2 93.4,473.1 	"/>
	<polygon fill="none" stroke="#000000" stroke-miterlimit="10" points="213.8,506.9 288.5,444.1 275.8,527 	"/>
	<polygon fill="none" stroke="#000000" stroke-miterlimit="10" points="288.5,444.1 343,449.4 275.8,527 	"/>
	<polygon fill="none" stroke="#000000" stroke-miterlimit="10" points="343,449.4 349.3,605.3 383.2,522.5 	"/>
	<polygon fill="none" stroke="#000000" stroke-miterlimit="10" points="275.8,527 304.1,622 349.3,605.3 	"/>
	<polygon fill="none" stroke="#000000" stroke-miterlimit="10" points="275.8,527 346.5,522.5 349.3,605.3 	"/>
	<polygon fill="none" stroke="#000000" stroke-miterlimit="10" points="275.8,527 343,449.4 346.5,522.5 	"/>
	<polygon fill="none" stroke="#000000" stroke-miterlimit="10" points="275.8,527 253,639.2 304.1,622 	"/>
	<polygon fill="none" stroke="#000000" stroke-miterlimit="10" points="275.8,527 213.8,506.9 253,639.2 	"/>
	<polygon fill="none" stroke="#000000" stroke-miterlimit="10" points="288.5,444.1 288.5,389.6 213.8,506.9 	"/>
	<polygon fill="none" stroke="#000000" stroke-miterlimit="10" points="288.5,389.6 231.8,375.5 213.8,506.9 	"/>
	<polygon fill="none" stroke="#000000" stroke-miterlimit="10" points="231.8,375.5 288.5,317 288.5,389.6 	"/>
	<polygon fill="none" stroke="#000000" stroke-miterlimit="10" points="344.4,288.1 330.8,346 288.5,389.6 	"/>
	<polygon fill="none" stroke="#000000" stroke-miterlimit="10" points="344.4,288.1 286,260.4 288.5,317 	"/>
	<polygon fill="none" stroke="#000000" stroke-miterlimit="10" points="333.6,374.4 288.5,389.6 330.8,346 	"/>
	<polygon fill="none" stroke="#000000" stroke-miterlimit="10" points="333.6,374.4 288.5,444.1 288.5,389.6 	"/>
	<polygon fill="none" stroke="#000000" stroke-miterlimit="10" points="405.5,176.8 413.4,95.8 459.4,178.5 	"/>
	<polygon fill="none" stroke="#000000" stroke-miterlimit="10" points="459.4,178.5 500.2,112.7 500.2,174.6 	"/>
	<polygon fill="none" stroke="#000000" stroke-miterlimit="10" points="459.4,178.5 413.4,95.8 500.2,112.7 	"/>
	<polygon fill="none" stroke="#000000" stroke-miterlimit="10" points="459.4,178.5 467.1,231.2 405.5,176.8 	"/>
	<polygon fill="none" stroke="#000000" stroke-miterlimit="10" points="467.1,231.2 500.2,174.6 459.4,178.5 	"/>
	<polygon fill="none" stroke="#000000" stroke-miterlimit="10" points="467.1,231.2 500.2,278 500.2,174.6 	"/>
	<polygon fill="none" stroke="#000000" stroke-miterlimit="10" points="467.1,231.2 439.4,322.6 500.2,278 	"/>
	<polygon fill="none" stroke="#000000" stroke-miterlimit="10" points="405.5,176.8 295,137.5 413.4,95.8 	"/>
	<polygon fill="none" stroke="#000000" stroke-miterlimit="10" points="295,137.5 337.8,190.8 405.5,176.8 	"/>
	<polygon fill="none" stroke="#000000" stroke-miterlimit="10" points="229.5,185.6 295,137.5 337.8,190.8 	"/>
	<polygon fill="none" stroke="#000000" stroke-miterlimit="10" points="349.3,605.3 309.9,673.3 380.3,609.2 	"/>
	<polygon fill="none" stroke="#000000" stroke-miterlimit="10" points="380.3,609.2 395.8,681.7 309.9,673.3 	"/>
	<polygon fill="none" stroke="#000000" stroke-miterlimit="10" points="309.9,673.3 304.1,622 349.3,605.3 	"/>
	<polygon fill="none" stroke="#000000" stroke-miterlimit="10" points="304.1,622 253,639.2 309.9,673.3 	"/>
	<polygon fill="none" stroke="#000000" stroke-miterlimit="10" points="309.9,673.3 370.7,785.9 395.8,681.7 	"/>
	<polygon fill="none" stroke="#000000" stroke-miterlimit="10" points="395.8,681.7 419.5,750.2 370.7,785.9 	"/>
	<polygon fill="none" stroke="#000000" stroke-miterlimit="10" points="309.9,673.3 294.5,741.2 370.7,785.9 	"/>
	<polygon fill="none" stroke="#000000" stroke-miterlimit="10" points="294.5,741.2 271,800 294.5,856.8 	"/>
	<polygon fill="none" stroke="#000000" stroke-miterlimit="10" points="294.5,741.2 355.6,868.4 294.5,833.4 	"/>
	<polygon fill="none" stroke="#000000" stroke-miterlimit="10" points="294.5,833.4 337.3,896.5 355.6,868.4 	"/>
	<polygon fill="none" stroke="#000000" stroke-miterlimit="10" points="294.5,741.2 253,639.2 309.9,673.3 	"/>
	<polygon fill="none" stroke="#000000" stroke-miterlimit="10" points="370.7,785.9 355.6,868.4 294.5,741.2 	"/>
	<polygon fill="none" stroke="#000000" stroke-miterlimit="10" points="419.5,750.2 355.6,868.4 370.7,785.9 	"/>
	<polygon fill="none" stroke="#000000" stroke-miterlimit="10" points="419.5,750.2 500.2,809.3 355.6,868.4 	"/>
	<polygon fill="none" stroke="#000000" stroke-miterlimit="10" points="419.5,750.2 447.8,651.7 419.5,661.8 395.8,681.7 	"/>
	<polygon fill="none" stroke="#000000" stroke-miterlimit="10" points="447.8,651.7 500.2,686.4 500.2,656.8 	"/>
	<polygon fill="none" stroke="#000000" stroke-miterlimit="10" points="447.8,651.7 500.2,686.4 419.5,750.2 	"/>
	<polygon fill="none" stroke="#000000" stroke-miterlimit="10" points="500.2,686.4 500.2,809.3 457.3,720.2 	"/>
	<polygon fill="none" stroke="#000000" stroke-miterlimit="10" points="457.3,720.2 419.5,750.2 500.2,809.3 	"/>
	<polygon fill="none" stroke="#000000" stroke-miterlimit="10" points="294.5,741.2 235.8,704 253,639.2 	"/>
	<polygon fill="none" stroke="#000000" stroke-miterlimit="10" points="235.8,704 271,800 294.5,741.2 	"/>
	<polygon fill="none" stroke="#000000" stroke-miterlimit="10" points="235.8,704 179.8,657.9 253,639.2 	"/>
	<polygon fill="none" stroke="#000000" stroke-miterlimit="10" points="235.8,704 225.2,756 271,800 	"/>
	<polygon fill="none" stroke="#000000" stroke-miterlimit="10" points="179.8,657.9 179.8,701 235.8,704 	"/>
	<polygon fill="none" stroke="#000000" stroke-miterlimit="10" points="179.8,657.9 136.9,639.2 179.8,701 	"/>
	<polygon fill="none" stroke="#000000" stroke-miterlimit="10" points="235.8,704 179.8,701 225.2,756 	"/>
	<polygon fill="none" stroke="#000000" stroke-miterlimit="10" points="355.6,868.4 425.3,919.9 433.7,836.4 	"/>
	<polygon fill="none" stroke="#000000" stroke-miterlimit="10" points="433.7,836.4 470,896.5 500.2,809.3 	"/>
	<polygon fill="none" stroke="#000000" stroke-miterlimit="10" points="470,896.5 500.2,957.2 500.2,809.3 	"/>
	<polygon fill="none" stroke="#000000" stroke-miterlimit="10" points="425.3,919.9 470,896.5 433.7,836.4 	"/>
	<polygon fill="none" stroke="#000000" stroke-miterlimit="10" points="425.3,919.9 477.2,947.9 470,896.5 	"/>
	<polygon fill="none" stroke="#000000" stroke-miterlimit="10" points="355.6,868.4 389.6,933.1 391.5,894.9 	"/>
	<polygon fill="none" stroke="#000000" stroke-miterlimit="10" points="391.5,894.9 427.2,953.1 425.3,919.9 	"/>
</g>
<g>
	<polygon fill="none" stroke="#000000" stroke-miterlimit="10" points="845.3,263.2 887.4,338.2 934.6,242.4 	"/>
	<polygon fill="none" stroke="#000000" stroke-miterlimit="10" points="859.6,173 845.3,263.2 769.4,185.6 	"/>
	<polygon fill="none" stroke="#000000" stroke-miterlimit="10" points="934.6,242.4 921.6,194.3 845.3,263.2 	"/>
	<polygon fill="none" stroke="#000000" stroke-miterlimit="10" points="921.6,194.3 859.6,173 845.3,263.2 	"/>
	<polygon fill="none" stroke="#000000" stroke-miterlimit="10" points="859.6,173 828.4,156.1 769.4,185.6 	"/>
	<polygon fill="none" stroke="#000000" stroke-miterlimit="10" points="921.6,194.3 966.3,128.4 859.6,173 	"/>
	<polygon fill="none" stroke="#000000" stroke-miterlimit="10" points="934.6,242.4 996.2,210.7 921.6,194.3 	"/>
	<polygon fill="none" stroke="#000000" stroke-miterlimit="10" points="934.6,242.4 940.5,317 887.4,338.2 	"/>
	<polygon fill="none" stroke="#000000" stroke-miterlimit="10" points="828.4,156.1 845.3,101.9 859.6,173 	"/>
	<polygon fill="none" stroke="#000000" stroke-miterlimit="10" points="966.3,128.4 912.9,74.6 859.6,173 	"/>
	<polygon fill="none" stroke="#000000" stroke-miterlimit="10" points="912.9,74.6 845.3,101.9 859.6,173 	"/>
	<polygon fill="none" stroke="#000000" stroke-miterlimit="10" points="845.3,101.9 795,156.1 828.4,156.1 	"/>
	<polygon fill="none" stroke="#000000" stroke-miterlimit="10" points="828.4,156.1 769.4,185.6 795,156.1 	"/>
	<polygon fill="none" stroke="#000000" stroke-miterlimit="10" points="966.3,128.4 996.2,210.7 921.6,194.3 	"/>
	<polygon fill="none" stroke="#000000" stroke-miterlimit="10" points="996.2,210.7 940.5,317 934.6,242.4 	"/>
	<polygon fill="none" stroke="#000000" stroke-miterlimit="10" points="966.3,128.4 997.6,146.6 996.2,210.7 	"/>
	<polygon fill="none" stroke="#000000" stroke-miterlimit="10" points="997.6,146.6 961.4,71.6 966.3,128.4 	"/>
	<polygon fill="none" stroke="#000000" stroke-miterlimit="10" points="961.4,71.6 912.9,74.6 966.3,128.4 	"/>
	<polygon fill="none" stroke="#000000" stroke-miterlimit="10" points="961.4,71.6 859.6,49 912.9,74.6 	"/>
	<polygon fill="none" stroke="#000000" stroke-miterlimit="10" points="859.6,49 845.3,101.9 912.9,74.6 	"/>
	<polygon fill="none" stroke="#000000" stroke-miterlimit="10" points="859.6,49 773.1,112.7 845.3,101.9 	"/>
	<polygon fill="none" stroke="#000000" stroke-miterlimit="10" points="773.1,112.7 795,156.1 845.3,101.9 	"/>
	<polygon fill="none" stroke="#000000" stroke-miterlimit="10" points="795,156.1 737.2,161.9 769.4,185.6 	"/>
	<polygon fill="none" stroke="#000000" stroke-miterlimit="10" points="795,156.1 723.3,99.3 737.2,161.9 	"/>
	<polygon fill="none" stroke="#000000" stroke-miterlimit="10" points="613.1,309 654.5,288.1 668.2,346 	"/>
	<polygon fill="none" stroke="#000000" stroke-miterlimit="10" points="773.1,112.7 723.3,99.3 795,156.1 	"/>
	<polygon fill="none" stroke="#000000" stroke-miterlimit="10" points="649.6,331.6 613.1,309 610.9,340.4 	"/>
	<polygon fill="none" stroke="#000000" stroke-miterlimit="10" points="603.1,350.5 639,349.7 615.7,389.6 	"/>
	<polygon fill="none" stroke="#000000" stroke-miterlimit="10" points="723.3,99.3 703.9,137.5 737.2,161.9 	"/>
	<polygon fill="none" stroke="#000000" stroke-miterlimit="10" points="613.1,309 581.4,346 611.2,336.1 	"/>
	<polygon fill="none" stroke="#000000" stroke-miterlimit="10" points="581.4,346 603.1,350.5 615.7,389.6 	"/>
	<polygon fill="none" stroke="#000000" stroke-miterlimit="10" points="649.6,331.6 665.4,374.4 668.2,346 	"/>
	<polygon fill="none" stroke="#000000" stroke-miterlimit="10" points="649.6,331.6 615.7,389.6 665.4,374.4 	"/>
	<polygon fill="none" stroke="#000000" stroke-miterlimit="10" points="611.2,336.1 603.1,350.5 581.4,346 	"/>
	<path fill="none" stroke="#000000" stroke-miterlimit="10" d="M649.6,331.6c0,0,1.6,27-28.3,25.7c0,0-13-1.6-18.2-6.8
		c0,0,1.3-15.9,18.9-18.9C639.5,328.7,649.6,331.6,649.6,331.6z"/>
	<circle fill="none" stroke="#000000" stroke-miterlimit="10" cx="619.4" cy="340.4" r="3.7"/>
	<polygon fill="none" stroke="#000000" stroke-miterlimit="10" points="613.1,309 559.5,322.6 581.4,346 	"/>
	<polygon fill="none" stroke="#000000" stroke-miterlimit="10" points="613.1,309 581.4,280.6 559.5,322.6 	"/>
	<polygon fill="none" stroke="#000000" stroke-miterlimit="10" points="615.7,389.6 572.5,399.7 559.5,322.6 581.4,346 	"/>
	<polygon fill="none" stroke="#000000" stroke-miterlimit="10" points="615.7,389.6 592.1,416.2 572.5,399.7 	"/>
	<polygon fill="none" stroke="#000000" stroke-miterlimit="10" points="615.7,389.6 655.9,450.2 592.1,416.2 	"/>
	<polygon fill="none" stroke="#000000" stroke-miterlimit="10" points="665.4,374.4 655.9,450.2 615.7,389.6 	"/>
	<polygon fill="none" stroke="#000000" stroke-miterlimit="10" points="665.4,374.4 710.4,444.1 655.9,450.2 	"/>
	<polygon fill="none" stroke="#000000" stroke-miterlimit="10" points="592.1,416.2 615.7,522.5 655.9,449.4 	"/>
	<polygon fill="none" stroke="#000000" stroke-miterlimit="10" points="559.5,322.6 498.8,278 498.8,321.2 	"/>
	<polygon fill="none" stroke="#000000" stroke-miterlimit="10" points="559.5,322.6 548.3,435.8 498.8,321.2 	"/>
	<polygon fill="none" stroke="#000000" stroke-miterlimit="10" points="498.8,321.2 498.8,423.7 548.3,435.8 	"/>
	<polygon fill="none" stroke="#000000" stroke-miterlimit="10" points="548.3,435.8 592.1,416.2 572.5,399.7 	"/>
	<polygon fill="none" stroke="#000000" stroke-miterlimit="10" points="559.5,322.6 572.5,399.7 548.3,435.8 	"/>
	<polygon fill="none" stroke="#000000" stroke-miterlimit="10" points="548.3,435.8 541,456.6 498.8,423.7 	"/>
	<polygon fill="none" stroke="#000000" stroke-miterlimit="10" points="541,456.6 498.8,473.1 498.8,423.7 	"/>
	<polygon fill="none" stroke="#000000" stroke-miterlimit="10" points="548.3,435.8 578.2,486.1 541,456.6 	"/>
	<polygon fill="none" stroke="#000000" stroke-miterlimit="10" points="578.2,486.1 615.7,522.5 592.1,416.2 	"/>
	<polygon fill="none" stroke="#000000" stroke-miterlimit="10" points="592.1,416.2 548.3,435.8 578.2,486.1 	"/>
	<polygon fill="none" stroke="#000000" stroke-miterlimit="10" points="578.2,486.1 579.5,528.9 615.7,522.5 	"/>
	<polygon fill="none" stroke="#000000" stroke-miterlimit="10" points="615.7,522.5 649.6,605.3 606.8,579.8 	"/>
	<polygon fill="none" stroke="#000000" stroke-miterlimit="10" points="579.5,528.9 611.3,550.7 570.2,566.3 	"/>
	<polygon fill="none" stroke="#000000" stroke-miterlimit="10" points="579.5,528.9 611.3,550.7 615.7,522.5 	"/>
	<polygon fill="none" stroke="#000000" stroke-miterlimit="10" points="570.2,566.3 587.6,613.1 498.8,594.4 	"/>
	<polygon fill="none" stroke="#000000" stroke-miterlimit="10" points="587.6,613.1 548.3,635.7 498.8,594.4 	"/>
	<polygon fill="none" stroke="#000000" stroke-miterlimit="10" points="587.6,613.1 603.1,681.7 548.3,635.7 	"/>
	<polygon fill="none" stroke="#000000" stroke-miterlimit="10" points="649.6,605.3 587.6,613.1 606.8,579.8 	"/>
	<polygon fill="none" stroke="#000000" stroke-miterlimit="10" points="570.2,566.3 606.8,579.8 587.6,613.1 	"/>
	<polygon fill="none" stroke="#000000" stroke-miterlimit="10" points="611.3,550.7 606.8,579.8 570.2,566.3 	"/>
	<polygon fill="none" stroke="#000000" stroke-miterlimit="10" points="587.6,613.1 618.6,609.2 603.1,681.7 	"/>
	<polygon fill="none" stroke="#000000" stroke-miterlimit="10" points="548.3,635.7 498.8,629.6 498.8,594.4 	"/>
	<polygon fill="none" stroke="#000000" stroke-miterlimit="10" points="579.5,661.8 551.2,651.7 498.8,656.8 498.8,629.6 
		548.3,635.7 	"/>
	<polygon fill="none" stroke="#000000" stroke-miterlimit="10" points="579.5,528.9 516.3,516.6 526.6,550.7 	"/>
	<polygon fill="none" stroke="#000000" stroke-miterlimit="10" points="526.6,550.7 498.8,594.4 498.8,557.6 	"/>
	<polygon fill="none" stroke="#000000" stroke-miterlimit="10" points="526.6,550.7 570.2,566.3 498.8,594.4 	"/>
	<polygon fill="none" stroke="#000000" stroke-miterlimit="10" points="541,456.6 578.2,486.1 579.5,528.9 516.3,516.6 526.6,550.7 
		498.8,557.6 498.8,473.1 	"/>
	<polygon fill="none" stroke="#000000" stroke-miterlimit="10" points="526.6,550.7 579.5,528.9 570.2,566.3 	"/>
	<polygon fill="none" stroke="#000000" stroke-miterlimit="10" points="516.3,516.6 519.9,481.8 534.3,486.1 537.3,499.7 	"/>
	<polygon fill="none" stroke="#000000" stroke-miterlimit="10" points="654.5,288.1 710.4,317 710.4,389.6 	"/>
	<polygon fill="none" stroke="#000000" stroke-miterlimit="10" points="581.4,280.6 531.8,231.2 559.5,322.6 	"/>
	<polygon fill="none" stroke="#000000" stroke-miterlimit="10" points="785.1,506.9 854.5,470.4 834.2,586.2 	"/>
	<polygon fill="none" stroke="#000000" stroke-miterlimit="10" points="785.1,506.9 820.6,390.1 767.1,375.5 	"/>
	<polygon fill="none" stroke="#000000" stroke-miterlimit="10" points="767.1,375.5 752.5,290.3 710.4,317 	"/>
	<polygon fill="none" stroke="#000000" stroke-miterlimit="10" points="769.4,185.6 820.6,390.1 845.3,263.2 	"/>
	<polygon fill="none" stroke="#000000" stroke-miterlimit="10" points="845.3,263.2 887.4,338.2 820.6,390.1 	"/>
	<polygon fill="none" stroke="#000000" stroke-miterlimit="10" points="613.1,309 654.5,288.1 713,260.4 596.9,237.3 	"/>
	<polygon fill="none" stroke="#000000" stroke-miterlimit="10" points="596.9,237.3 581.4,280.6 613.1,309 	"/>
	<polygon fill="none" stroke="#000000" stroke-miterlimit="10" points="596.9,237.3 593.4,176.8 531.8,231.2 581.4,280.6 	"/>
	<polygon fill="none" stroke="#000000" stroke-miterlimit="10" points="713,260.4 752.5,290.3 710.4,317 	"/>
	<polygon fill="none" stroke="#000000" stroke-miterlimit="10" points="596.9,237.3 661.1,190.8 593.4,176.8 	"/>
	<polygon fill="none" stroke="#000000" stroke-miterlimit="10" points="633.6,210.7 596.9,237.3 713,260.4 	"/>
	<polygon fill="none" stroke="#000000" stroke-miterlimit="10" points="661.1,190.8 713,260.4 633.6,210.7 	"/>
	<polygon fill="none" stroke="#000000" stroke-miterlimit="10" points="713,260.4 769.4,185.6 661.1,190.8 	"/>
	<polygon fill="none" stroke="#000000" stroke-miterlimit="10" points="713,260.4 752.5,290.3 807.4,331.6 787,255.9 	"/>
	<polygon fill="none" stroke="#000000" stroke-miterlimit="10" points="769.4,185.6 713,260.4 787,255.9 	"/>
	<polygon fill="none" stroke="#000000" stroke-miterlimit="10" points="752.5,290.3 820.6,390.1 807.4,331.6 	"/>
	<polygon fill="none" stroke="#000000" stroke-miterlimit="10" points="752.5,290.3 767.1,375.5 820.6,390.1 	"/>
	<polygon fill="none" stroke="#000000" stroke-miterlimit="10" points="785.1,506.9 745.9,639.2 834.2,586.2 	"/>
	<polygon fill="none" stroke="#000000" stroke-miterlimit="10" points="834.2,586.2 819.1,657.9 745.9,639.2 	"/>
	<polygon fill="none" stroke="#000000" stroke-miterlimit="10" points="819.1,657.9 862,639.2 834.2,586.2 	"/>
	<polygon fill="none" stroke="#000000" stroke-miterlimit="10" points="834.2,586.2 890,572.5 862,639.2 	"/>
	<polygon fill="none" stroke="#000000" stroke-miterlimit="10" points="890,572.5 843.9,530.9 834.2,586.2 	"/>
	<polygon fill="none" stroke="#000000" stroke-miterlimit="10" points="890,572.5 902,530.7 843.9,530.9 	"/>
	<polygon fill="none" stroke="#000000" stroke-miterlimit="10" points="902,530.7 854.5,470.4 843.9,530.9 	"/>
	<polygon fill="none" stroke="#000000" stroke-miterlimit="10" points="854.5,470.4 820.6,390.1 905.6,473.1 	"/>
	<polygon fill="none" stroke="#000000" stroke-miterlimit="10" points="854.5,470.4 902,530.7 905.6,473.1 	"/>
	<polygon fill="none" stroke="#000000" stroke-miterlimit="10" points="820.6,390.1 785.1,506.9 854.5,470.4 	"/>
	<polygon fill="none" stroke="#000000" stroke-miterlimit="10" points="820.6,390.1 887.4,338.2 905.6,473.1 	"/>
	<polygon fill="none" stroke="#000000" stroke-miterlimit="10" points="785.1,506.9 710.4,444.1 723.2,527 	"/>
	<polygon fill="none" stroke="#000000" stroke-miterlimit="10" points="710.4,444.1 655.9,449.4 723.2,527 	"/>
	<polygon fill="none" stroke="#000000" stroke-miterlimit="10" points="655.9,449.4 649.6,605.3 615.7,522.5 	"/>
	<polygon fill="none" stroke="#000000" stroke-miterlimit="10" points="723.2,527 694.8,622 649.6,605.3 	"/>
	<polygon fill="none" stroke="#000000" stroke-miterlimit="10" points="723.2,527 652.4,522.5 649.6,605.3 	"/>
	<polygon fill="none" stroke="#000000" stroke-miterlimit="10" points="723.2,527 655.9,449.4 652.4,522.5 	"/>
	<polygon fill="none" stroke="#000000" stroke-miterlimit="10" points="723.2,527 745.9,639.2 694.8,622 	"/>
	<polygon fill="none" stroke="#000000" stroke-miterlimit="10" points="723.2,527 785.1,506.9 745.9,639.2 	"/>
	<polygon fill="none" stroke="#000000" stroke-miterlimit="10" points="710.4,444.1 710.4,389.6 785.1,506.9 	"/>
	<polygon fill="none" stroke="#000000" stroke-miterlimit="10" points="710.4,389.6 767.1,375.5 785.1,506.9 	"/>
	<polygon fill="none" stroke="#000000" stroke-miterlimit="10" points="767.1,375.5 710.4,317 710.4,389.6 	"/>
	<polygon fill="none" stroke="#000000" stroke-miterlimit="10" points="654.5,288.1 668.2,346 710.4,389.6 	"/>
	<polygon fill="none" stroke="#000000" stroke-miterlimit="10" points="654.5,288.1 713,260.4 710.4,317 	"/>
	<polygon fill="none" stroke="#000000" stroke-miterlimit="10" points="665.4,374.4 710.4,389.6 668.2,346 	"/>
	<polygon fill="none" stroke="#000000" stroke-miterlimit="10" points="665.4,374.4 710.4,444.1 710.4,389.6 	"/>
	<polygon fill="none" stroke="#000000" stroke-miterlimit="10" points="593.4,176.8 585.6,95.8 539.5,178.5 	"/>
	<polygon fill="none" stroke="#000000" stroke-miterlimit="10" points="539.5,178.5 498.8,112.7 498.8,174.6 	"/>
	<polygon fill="none" stroke="#000000" stroke-miterlimit="10" points="539.5,178.5 585.6,95.8 498.8,112.7 	"/>
	<polygon fill="none" stroke="#000000" stroke-miterlimit="10" points="539.5,178.5 531.8,231.2 593.4,176.8 	"/>
	<polygon fill="none" stroke="#000000" stroke-miterlimit="10" points="531.8,231.2 498.8,174.6 539.5,178.5 	"/>
	<polygon fill="none" stroke="#000000" stroke-miterlimit="10" points="531.8,231.2 498.8,278 498.8,174.6 	"/>
	<polygon fill="none" stroke="#000000" stroke-miterlimit="10" points="531.8,231.2 559.5,322.6 498.8,278 	"/>
	<polygon fill="none" stroke="#000000" stroke-miterlimit="10" points="593.4,176.8 703.9,137.5 585.6,95.8 	"/>
	<polygon fill="none" stroke="#000000" stroke-miterlimit="10" points="703.9,137.5 661.1,190.8 593.4,176.8 	"/>
	<polygon fill="none" stroke="#000000" stroke-miterlimit="10" points="769.4,185.6 703.9,137.5 661.1,190.8 	"/>
	<polygon fill="none" stroke="#000000" stroke-miterlimit="10" points="649.6,605.3 689,673.3 618.6,609.2 	"/>
	<polygon fill="none" stroke="#000000" stroke-miterlimit="10" points="618.6,609.2 603.1,681.7 689,673.3 	"/>
	<polygon fill="none" stroke="#000000" stroke-miterlimit="10" points="689,673.3 694.8,622 649.6,605.3 	"/>
	<polygon fill="none" stroke="#000000" stroke-miterlimit="10" points="694.8,622 745.9,639.2 689,673.3 	"/>
	<polygon fill="none" stroke="#000000" stroke-miterlimit="10" points="689,673.3 628.2,785.9 603.1,681.7 	"/>
	<polygon fill="none" stroke="#000000" stroke-miterlimit="10" points="603.1,681.7 579.5,750.2 628.2,785.9 	"/>
	<polygon fill="none" stroke="#000000" stroke-miterlimit="10" points="689,673.3 704.4,741.2 628.2,785.9 	"/>
	<polygon fill="none" stroke="#000000" stroke-miterlimit="10" points="704.4,741.2 728,800 704.4,856.8 	"/>
	<polygon fill="none" stroke="#000000" stroke-miterlimit="10" points="704.4,741.2 643.3,868.4 704.4,833.4 	"/>
	<polygon fill="none" stroke="#000000" stroke-miterlimit="10" points="704.4,833.4 661.7,896.5 643.3,868.4 	"/>
	<polygon fill="none" stroke="#000000" stroke-miterlimit="10" points="704.4,741.2 745.9,639.2 689,673.3 	"/>
	<polygon fill="none" stroke="#000000" stroke-miterlimit="10" points="628.2,785.9 643.3,868.4 704.4,741.2 	"/>
	<polygon fill="none" stroke="#000000" stroke-miterlimit="10" points="579.5,750.2 643.3,868.4 628.2,785.9 	"/>
	<polygon fill="none" stroke="#000000" stroke-miterlimit="10" points="579.5,750.2 498.8,809.3 643.3,868.4 	"/>
	<polygon fill="none" stroke="#000000" stroke-miterlimit="10" points="579.5,750.2 551.2,651.7 579.5,661.8 603.1,681.7 	"/>
	<polygon fill="none" stroke="#000000" stroke-miterlimit="10" points="551.2,651.7 498.8,686.4 498.8,656.8 	"/>
	<polygon fill="none" stroke="#000000" stroke-miterlimit="10" points="551.2,651.7 498.8,686.4 579.5,750.2 	"/>
	<polygon fill="none" stroke="#000000" stroke-miterlimit="10" points="498.8,686.4 498.8,809.3 541.6,720.2 	"/>
	<polygon fill="none" stroke="#000000" stroke-miterlimit="10" points="541.6,720.2 579.5,750.2 498.8,809.3 	"/>
	<polygon fill="none" stroke="#000000" stroke-miterlimit="10" points="704.4,741.2 763.1,704 745.9,639.2 	"/>
	<polygon fill="none" stroke="#000000" stroke-miterlimit="10" points="763.1,704 728,800 704.4,741.2 	"/>
	<polygon fill="none" stroke="#000000" stroke-miterlimit="10" points="763.1,704 819.1,657.9 745.9,639.2 	"/>
	<polygon fill="none" stroke="#000000" stroke-miterlimit="10" points="763.1,704 773.7,756 728,800 	"/>
	<polygon fill="none" stroke="#000000" stroke-miterlimit="10" points="819.1,657.9 819.1,701 763.1,704 	"/>
	<polygon fill="none" stroke="#000000" stroke-miterlimit="10" points="819.1,657.9 862,639.2 819.1,701 	"/>
	<polygon fill="none" stroke="#000000" stroke-miterlimit="10" points="763.1,704 819.1,701 773.7,756 	"/>
	<polygon fill="none" stroke="#000000" stroke-miterlimit="10" points="643.3,868.4 573.6,919.9 565.2,836.4 	"/>
	<polygon fill="none" stroke="#000000" stroke-miterlimit="10" points="565.2,836.4 529,896.5 498.8,809.3 	"/>
	<polygon fill="none" stroke="#000000" stroke-miterlimit="10" points="529,896.5 498.8,957.2 498.8,809.3 	"/>
	<polygon fill="none" stroke="#000000" stroke-miterlimit="10" points="573.6,919.9 529,896.5 565.2,836.4 	"/>
	<polygon fill="none" stroke="#000000" stroke-miterlimit="10" points="573.6,919.9 521.7,947.9 529,896.5 	"/>
	<polygon fill="none" stroke="#000000" stroke-miterlimit="10" points="643.3,868.4 609.3,933.1 607.4,894.9 	"/>
	<polygon fill="none" stroke="#000000" stroke-miterlimit="10" points="607.4,894.9 571.7,953.1 573.6,919.9 	"/>
</g>
</svg>
